# xmcd
#
# Track frame offsets:
#	150
#	10353
#	22865
#	34249
#	44176
#	56067
#	68551
#	78107
#	86894
#	97950
#	114966
#	125196
#	139631
#	152235
#	168234
#	185902
#	199424
#	208800
#
# Disc length: 2947 seconds
#
# Revision: 0
# Processed by: cddbd v1.5.2PL0 Copyright (c) Steve Scherf et al.
# Submitted via: audiograbber 1.83.01
#
DISCID=020b8112
DTITLE=Scott Woods - Reflecting the Past
DYEAR=2005
DGENRE=Instrumental
TTITLE0=Patronella - Crooked Stovepipe
TTITLE1=Rippling Water - Major Mackie's Jig - White Water Jig
TTITLE2=Shamus O'Brien
TTITLE3=Levantine's Barrel - Monkey's Wedding
TTITLE4=Let's Have a Ceilidh - Miss McLeod's - Fairy Dance - Mason's Apron
TTITLE5=Black Velvet Waltz
TTITLE6=Skiffle Fiddle
TTITLE7=Ragtime Annie
TTITLE8=My Pretty Girl
TTITLE9=Over the Waves
TTITLE10=Girl I Left Behind Me - Buffalo Gals
TTITLE11=Lone Star Rag
TTITLE12=Dry River Waltz
TTITLE13=Rock Valley - Andy's Jig - Farmer's Jamboree - Little Burnt Potato
TTITLE14=Joy-El Waltz
TTITLE15=Back Up and Push
TTITLE16=Flop Eared Mule - Turkey In The Straw - Arkansas Traveller
TTITLE17=He
EXTD=McLeod Music Productions \nFergus, Ontario, Canada  N1M 2L9\n\ncd MMP 2060
EXTD=5\n
EXTT0=Medley
EXTT1=
EXTT2=
EXTT3=
EXTT4=
EXTT5=
EXTT6=
EXTT7=
EXTT8=
EXTT9=
EXTT10=
EXTT11=
EXTT12=
EXTT13=
EXTT14=
EXTT15=
EXTT16=
EXTT17=
PLAYORDER=
